<svg version="1.1" id="Layer_1" xmlns="http://www.w3.org/2000/svg" xmlns:xlink="http://www.w3.org/1999/xlink" x="0px" y="0px"
	 viewBox="0 0 4096 3112" style="enable-background:new 0 0 4096 3112;" xml:space="preserve">
<style type="text/css">
	.st0{fill:#FFFFFF;}
</style>

<g>

	<polygon class="st0" points="-5636.6,3264.5 -5636.6,2795.3 -4479.7,2717.9 -2682.6,2599 -248.1,2495.5 881,2303.5 1865,2111.5 
		3005,1750.5 3987.5,1211.4 5224.3,703.4 7250.1,12.1 10719.4,-2169.1 10719.4,3264.5 "/>
	<path class="st0" d="M10718.9-2168.2V3264h-16355v-468.2l1156.5-77.4l1797-118.8L-248.1,2496l0.1,0l0.1,0l1129-192l984-192l0.1,0
		l0.1,0l1140-361l0.1,0l0.1,0l982.3-539l1236.8-508L7250.2,12.6l0.1,0l0.1-0.1L10718.9-2168.2 M10719.9-2170L7249.9,11.6
		L5224.1,702.9l-1236.9,508l-982.4,539l-1140,361l-984,192l-1129,192l-2434.5,103.6l-1797.1,118.8l-1157.4,77.5V3265h16357V-2170
		L10719.9-2170z"/>
     
</g>
<g>

	<polygon points="-5630.6,3274.5 -5630.6,2805.3 -4473.7,2727.9 -2676.6,2609 -242.1,2505.5 887,2313.5 1871,2121.5 3011,1760.5 
		3993.5,1221.4 5230.3,713.4 7256.1,22.1 10725.4,-2159.1 10725.4,3274.5 	"/>
	<path d="M10724.9-2158.2V3274h-16355v-468.2l1156.5-77.4l1797-118.8L-242.1,2506l0.1,0l0.1,0l1129-192l984-192l0.1,0l0.1,0
		l1140-361l0.1,0l0.1,0l982.3-539l1236.8-508L7256.2,22.6l0.1,0l0.1-0.1L10724.9-2158.2 M10725.9-2160L7255.9,21.6L5230.1,712.9
		l-1236.9,508l-982.4,539l-1140,361l-984,192l-1129,192l-2434.5,103.6l-1797.1,118.8l-1157.4,77.5V3275h16357V-2160L10725.9-2160z"
		/>
    
</g>
</svg>